<?xml version="1.0" encoding="UTF-8" standalone="no"?>
<svg
   xmlns:dc="http://purl.org/dc/elements/1.1/"
   xmlns:cc="http://creativecommons.org/ns#"
   xmlns:rdf="http://www.w3.org/1999/02/22-rdf-syntax-ns#"
   xmlns:svg="http://www.w3.org/2000/svg"
   xmlns="http://www.w3.org/2000/svg"
   xmlns:sodipodi="http://sodipodi.sourceforge.net/DTD/sodipodi-0.dtd"
   xmlns:inkscape="http://www.inkscape.org/namespaces/inkscape"
   width="100"
   height="100"
   viewBox="0 0 100 100"
   version="1.1"
   id="svg8643"
   sodipodi:docname="logo.svg"
   inkscape:version="0.92.4 5da689c313, 2019-01-14">
  <metadata
     id="metadata8649">
    <rdf:RDF>
      <cc:Work
         rdf:about="">
        <dc:format>image/svg+xml</dc:format>
        <dc:type
           rdf:resource="http://purl.org/dc/dcmitype/StillImage" />
        <dc:title></dc:title>
      </cc:Work>
    </rdf:RDF>
  </metadata>
  <defs
     id="defs8647" />
  <sodipodi:namedview
     pagecolor="#ffffff"
     bordercolor="#666666"
     borderopacity="1"
     objecttolerance="10"
     gridtolerance="10"
     guidetolerance="10"
     inkscape:pageopacity="0"
     inkscape:pageshadow="2"
     inkscape:window-width="3440"
     inkscape:window-height="1411"
     id="namedview8645"
     showgrid="false"
     inkscape:zoom="2.83"
     inkscape:cx="56.944445"
     inkscape:cy="24.532979"
     inkscape:window-x="1920"
     inkscape:window-y="0"
     inkscape:window-maximized="1"
     inkscape:current-layer="svg8643" />
  <g
     id="g9442"
     inkscape:export-xdpi="300"
     inkscape:export-ydpi="300">
    <path
       sodipodi:nodetypes="ssscssccccssssscccccccccccccsccsscsccsssssccscccccssscccccccsccscccscccccscccccccccscccccczczcccccccccccscccccccccsccccccccsccccscccccccsccccccccccccccccccscc"
       inkscape:connector-curvature="0"
       id="path8635"
       d="m 76.401311,4.8828125 c -1.334547,0 -2.418527,1.0803483 -2.418527,2.4148965 v 7.960081 c 0,6.000927 -4.308684,11.817559 -10.723593,14.474853 -3.337278,1.381756 -12.000051,3.713132 -20.281499,-4.56833 l -3.551534,-3.551534 c -0.944169,-0.944169 -2.472999,-0.942354 -3.417168,0 -0.944171,0.944171 -0.944171,2.473001 0,3.41717 l 5.632338,5.635969 c 4.238775,4.245815 5.304374,11.40369 2.647307,17.815763 -1.383573,3.34 -5.866565,11.108525 -17.572458,11.108525 h -5.022259 c -1.334547,0 -2.418527,1.080349 -2.418527,2.414897 0,1.334549 1.083978,2.418527 2.418527,2.418527 h 7.960081 c 6.000927,0 11.820281,4.308684 14.478484,10.723593 1.383571,3.339889 3.705187,12.00299 -4.571962,20.281499 l -3.551531,3.551534 c -0.944171,0.944169 -0.944171,2.476624 0,3.420804 0.472084,0.47117 1.091248,0.70449 1.710399,0.70449 0.619158,0 1.234685,-0.23332 1.706769,-0.70449 l 3.551534,-3.551536 v -0.0037 l 2.077173,-2.073542 c 4.243319,-4.24695 11.408116,-5.310958 17.819394,-2.654572 3.328697,1.378516 11.048459,5.837559 11.104894,17.44899 0,0 0.132307,1.9416 2.480261,1.94644 2.347953,0.005 2.356794,-1.94644 2.356794,-1.94644 v -2.81435 c 0,-6.00184 4.312313,-11.817563 10.727224,-14.474856 3.339093,-1.381757 12.003678,-3.70496 20.281498,4.571961 l 3.55153,3.551535 c 0.47209,0.47208 1.08761,0.7045 1.70677,0.7045 0.61916,0 1.23832,-0.23332 1.7104,-0.7045 0.94417,-0.94417 0.94417,-2.476634 0,-3.420803 l -5.6287,-5.628706 c -4.24298,-4.243433 -5.30903,-11.404714 -2.65094,-17.819396 1.38357,-3.340002 5.86475,-11.108523 17.57246,-11.108523 h 5.02225 c 1.33455,0 2.41853,-1.083979 2.41853,-2.418528 0,-1.334547 -1.08398,-2.414896 -2.41853,-2.414896 h -7.96008 c -6.00092,0 -11.82028,-4.308679 -14.47848,-10.723595 -1.38357,-3.339889 -3.70519,-12.006621 4.57196,-20.28513 l 3.55153,-3.551532 c 0.94417,-0.944169 0.94417,-2.472999 0,-3.41717 -0.94417,-0.942355 -2.473,-0.942355 -3.41717,0 l -3.55153,3.551533 -2.0808,2.080805 C 103.49831,31.485398 96.339075,32.549517 89.928364,29.89597 86.589269,28.512397 78.819839,24.02759 78.819839,12.31988 V 7.297709 c 0,-1.334548 -1.083979,-2.4148965 -2.418528,-2.4148965 z m 2.418528,22.4385655 c 2.342834,3.048467 5.469719,5.471305 9.26013,7.041329 2.932373,1.21471 6.002743,1.802095 8.995036,1.801186 0.614391,0 1.224357,-0.03042 1.830238,-0.07989 l -6.903337,6.903337 h -0.0037 c -1.554249,1.552433 -4.60283,1.764872 -7.596939,0.522925 -2.574678,-1.066732 -5.581498,-3.51522 -5.581498,-6.910599 z m -4.837055,0.443033 v 9.764897 c 0,2.195195 -2.011808,4.50115 -5.004103,5.741281 -2.571727,1.066276 -6.427277,1.460854 -8.831622,-0.936907 l -6.576507,-6.58014 c 0.943602,0.124368 1.889817,0.210622 2.843405,0.210622 2.905139,0 5.841144,-0.581025 8.697258,-1.76487 3.535191,-1.464259 6.562552,-3.715515 8.871569,-6.434883 z m 28.651926,11.424457 c -0.49886,3.811974 0.002,7.736521 1.57241,11.526139 1.4638,3.534736 3.7154,6.566295 6.43488,8.875199 h -9.7649 c -2.534729,0 -4.708135,-2.512946 -5.741275,-5.004103 -1.065823,-2.575587 -1.459832,-6.434883 0.940538,-8.835252 v -0.0037 z m -52.154498,0.315934 6.246048,6.242417 0.0037,0.0037 0.657288,0.657288 c 1.549596,1.551867 1.759082,4.605325 0.519292,7.596937 -1.065823,2.576495 -3.518849,5.585131 -6.91423,5.585131 h -9.274655 c 3.047785,-2.342267 5.467449,-5.470967 7.037698,-9.26013 1.464712,-3.535418 2.015214,-7.269202 1.724927,-10.825274 z m 26.131721,4.194296 2.258746,2.120751 c 1.085992,0.850585 2.309438,1.58982 3.678633,2.157065 1.161715,0.480823 2.677664,0.841298 3.486166,0.976853 0.808503,0.135561 3.70042,-0.217886 3.70042,-0.217886 0,0 -0.325179,2.682431 -0.156143,3.507956 0.169028,0.825524 0.517022,2.800735 1.093057,4.190662 0.479687,1.158197 0.904338,2.038251 1.586933,2.981399 1.036016,0.846387 2.910964,2.457905 2.910964,2.457905 0,0 -1.566308,1.573626 -2.460747,2.317381 -0.866661,1.098051 -1.704612,2.57604 -2.280533,3.965513 -0.479689,1.157971 -0.676454,2.613295 -0.860862,3.762868 0.109215,1.569243 0.420512,3.311637 0.420512,3.311637 0,0 -1.833878,0.02361 -3.826502,-0.04767 -1.388794,0.163748 -2.800509,0.513508 -4.190662,1.089428 -1.158084,0.479803 -2.208814,1.082166 -3.152076,1.764873 -1.440681,1.248657 -2.299873,2.25276 -2.299873,2.25276 0.603822,-0.0063 -1.336388,-1.034088 -2.537182,-2.063927 -1.098052,-0.866656 -2.340001,-1.617905 -3.729473,-2.193372 -1.158651,-0.479235 -2.328988,-0.800048 -3.478902,-0.984116 -2.089913,0.259713 -3.25549,0.372269 -3.25549,0.372269 0,0 -0.162651,-1.303337 -0.296129,-3.655083 C 63.059042,70.377 62.705768,68.965287 62.129732,67.575697 61.650045,66.4175 61.050973,65.366771 60.368491,64.423623 c -0.841196,-1.059232 -2.16003,-2.338368 -2.16003,-2.338368 l 1.971205,-2.495056 c 0.866776,-1.098278 1.617798,-2.346807 2.193379,-3.736736 0.479689,-1.157968 0.644976,-1.89827 0.984115,-3.475272 0.33914,-1.577003 -0.381299,-3.925569 -0.381299,-3.925569 0,0 2.633962,0.474424 3.675,0.377668 1.041038,-0.09676 2.793871,-0.519121 4.179768,-1.093057 1.158084,-0.479801 2.208815,-1.078648 3.152077,-1.761241 z M 42.16062,64.42363 h 9.761266 c 2.534733,0 4.711772,2.513851 5.744912,5.004101 1.065822,2.575587 1.459832,6.434881 -0.940538,8.835253 l -6.558351,6.558351 c 0.498615,-3.810458 -0.0033,-7.733989 -1.572406,-11.522505 v -0.0037 C 47.131666,69.76168 44.87932,66.731785 42.16062,64.423545 Z m 59.64613,0 h 9.27829 c -3.04802,2.34238 -5.46825,5.470511 -7.0377,9.26013 -1.4646,3.534623 -2.01499,7.269654 -1.72493,10.825272 l -6.246047,-6.246048 -0.0037,-0.0037 -0.664551,-0.66455 c -1.542332,-1.555271 -1.749665,-4.602374 -0.512029,-7.589675 1.065822,-2.575585 3.515225,-5.581497 6.910597,-5.581497 z M 64.337723,79.70466 c 1.364053,-0.03587 2.817076,0.278711 4.063563,0.795281 2.574678,1.066729 5.581498,3.518849 5.581498,6.91423 v 9.274656 c -2.342494,-3.04824 -5.470742,-5.468129 -9.26013,-7.0377 -3.535073,-1.463803 -7.266138,-2.015099 -10.821641,-1.724925 l 6.899704,-6.903336 h 0.0037 c 0.896073,-0.895146 2.16934,-1.282346 3.533394,-1.318206 z m 23.967395,0.20699 c 1.586179,0.06801 3.149181,0.566446 4.350445,1.764873 l 6.561981,6.561982 c -3.810726,-0.498185 -7.736066,0.0035 -11.526137,1.572406 -3.53519,1.464259 -6.566182,3.7154 -8.875199,6.434881 v -9.761266 c 0,-2.53564 2.512944,-4.712678 5.004101,-5.74491 1.28768,-0.532684 2.898629,-0.895984 4.484809,-0.827966 z"
       style="fill:#000000;fill-opacity:1;stroke-width:1.85928881" />
    <path
       inkscape:connector-curvature="0"
       id="path9318"
       d="m 79.495146,57.326174 c -1.952902,-0.316515 -5.900947,1.763821 -5.900947,1.763821 l -5.897659,2.906112 c 0,0 -1.989938,4.205479 -1.988295,4.776624 0.0016,0.571145 3.167247,4.875429 3.167247,4.875429 0,0 4.609787,1.769343 4.859351,1.529231 0.249564,-0.240112 4.345978,-2.94047 4.345978,-2.94047 l 1.988295,-4.776624 1.191607,-3.341928 0.793127,-2.672177 z"
       style="fill:#8f00ec;fill-opacity:1;stroke:none;stroke-width:2.20878887px;stroke-linecap:butt;stroke-linejoin:miter;stroke-opacity:1" />
    <path
       inkscape:connector-curvature="0"
       id="path8635-7"
       d="m 77.332656,44.805936 c -0.478888,-0.450087 -1.252767,-0.448144 -1.732643,0.0073 -0.844466,0.799959 -1.61156,1.671392 -2.281863,2.589182 -2.045374,2.795261 -2.757257,6.205457 -2.094821,9.464176 -1.234991,-0.641872 -2.742398,-1.245307 -4.400047,-1.513236 -0.288923,-0.05346 -7.123105,-1.260744 -11.107123,3.075775 -0.447448,0.487804 -0.410024,1.230572 0.113204,1.65046 0.510484,0.423429 1.286195,0.371129 1.734946,-0.116698 3.037022,-3.30577 8.718051,-2.323495 8.801723,-2.308055 1.071,0.173215 2.082077,0.523703 2.971464,0.928973 -3.669213,0.326733 -7.237154,1.562812 -10.217172,3.562738 -1.168215,0.783804 -2.191188,1.632219 -3.042552,2.521116 -0.447504,0.46669 -0.426501,1.180386 0.03863,1.617543 0.01172,0.01102 0.02358,0.0234 0.03668,0.03447 0.500403,0.433125 1.278749,0.396981 1.737655,-0.08192 0.730202,-0.762354 1.619243,-1.498108 2.639755,-2.183416 1.824445,-1.22431 3.903685,-2.111873 6.086772,-2.644008 -2.66575,2.996999 -2.51723,7.48345 0.449008,10.271292 2.965704,2.787341 7.684276,2.876359 10.80456,0.307942 -0.524572,2.094236 -1.43131,4.08688 -2.694586,5.832179 -0.708668,0.978393 -1.469324,1.832337 -2.262417,2.535584 -0.498215,0.441958 -0.528424,1.181259 -0.06711,1.651996 0.01171,0.01225 0.02489,0.0234 0.0367,0.03449 0.465131,0.437157 1.217162,0.450004 1.702663,0.01903 0.924747,-0.819927 1.803586,-1.803821 2.614107,-2.923793 2.067777,-2.855451 3.314946,-6.282012 3.595215,-9.806266 0.452304,0.860686 0.848777,1.844866 1.049754,2.892534 0.01159,0.05363 1.131189,5.423343 -2.330564,8.36772 -0.507718,0.432407 -0.552302,1.171835 -0.101091,1.652289 0.458149,0.497458 1.227819,0.518253 1.735531,0.08709 4.513349,-3.839022 3.164485,-10.322625 3.110857,-10.568825 -0.304707,-1.589256 -0.968203,-3.032673 -1.670313,-4.214344 3.455894,0.608363 7.052324,-0.107347 9.982254,-2.103158 0.94517,-0.643963 1.839442,-1.377282 2.660675,-2.178624 0.473714,-0.461882 0.468922,-1.197524 -0.01,-1.647612 l -0.0066,-0.0062 c -0.485359,-0.450092 -1.263191,-0.438115 -1.739124,0.02602 -0.719211,0.702052 -1.503069,1.343967 -2.329558,1.907396 -1.650701,1.124665 -3.564506,1.748627 -5.521933,1.858832 0.337341,-0.151372 0.667441,-0.32318 0.987668,-0.519137 0.07604,-0.04689 0.146052,-0.100658 0.209905,-0.162093 0.08861,-0.08526 2.178656,-2.129772 3.085806,-6.106407 0.144201,-0.632162 -0.279967,-1.252025 -0.942189,-1.386168 -0.663526,-0.132888 -1.317992,0.271261 -1.462195,0.903424 -0.650364,2.851122 -2.004929,4.489562 -2.345871,4.866186 -0.84105,0.484996 -1.809127,0.759212 -2.70743,0.91529 1.220099,-1.66662 1.268477,-3.868148 0.146018,-5.563158 0,0 -0.1666,-0.407327 -0.747554,-0.950424 -0.580954,-0.543095 -0.947884,-0.643047 -0.947884,-0.643047 -1.795787,-1.048653 -4.111877,-0.978577 -5.850758,0.201513 0.161752,-0.848176 0.446132,-1.765668 0.946483,-2.570331 0.401161,-0.334895 2.105912,-1.637394 5.089491,-2.287572 0.663054,-0.144517 1.079061,-0.772783 0.931553,-1.402152 C 81.8705,50.07278 81.214387,49.678569 80.551011,49.8234 c -4.170939,0.909138 -6.296354,2.920415 -6.384963,3.005668 -0.06384,0.06142 -0.119496,0.128715 -0.167989,0.201488 -0.206858,0.313661 -0.388215,0.636417 -0.546026,0.966437 0.0933,-1.859116 0.725057,-3.685549 1.882149,-5.26732 0.586357,-0.802129 1.25645,-1.563978 1.995328,-2.263656 0.483223,-0.457285 0.48754,-1.197995 0.0096,-1.653993 z M 80.11269,59.12937 c 1.11173,1.044867 1.116335,2.758693 0.011,3.822168 -0.344012,0.330983 -0.755265,0.565929 -1.224968,0.697611 -0.62899,0.176536 -1.006483,0.790192 -0.857093,1.395306 0.43762,1.774437 -0.104607,3.606939 -1.450687,4.902037 -2.142257,2.061122 -5.637551,2.092186 -7.79157,0.06771 -2.154016,-2.02447 -2.163586,-5.349608 -0.02133,-7.410729 1.346079,-1.295098 3.267649,-1.831833 5.138983,-1.435563 0.639031,0.135273 1.279562,-0.230548 1.457176,-0.831313 0.131993,-0.447219 0.373898,-0.843191 0.71791,-1.174174 1.105337,-1.063473 2.908848,-1.077926 4.020577,-0.03306 z"
       style="fill:#000000;fill-opacity:1;stroke-width:0.92263997" />
    <g
       style="fill:#000000;fill-opacity:1"
       id="g8625"
       transform="matrix(0.14014696,0.13171821,-0.10656164,0.10252574,71.346476,54.098847)">
      <g
         id="g8623"
         style="fill:#000000;fill-opacity:1"
         transform="matrix(0.69,0,0,0.69,15.5,15.5)">
        <svg
           id="svg8621"
           xml:space="preserve"
           enable-background="new 0 0 100 100"
           viewBox="0 0 100 100"
           y="0px"
           x="0px"
           version="1.1"
           width="100%"
           height="100%"
           style="fill:#000000;fill-opacity:1"><g
             style="fill:#000000;fill-opacity:1"
             id="g8619"><g
               style="fill:#000000;fill-opacity:1"
               id="g8597"><polygon
                 style="fill:#000000;fill-opacity:1"
                 id="polygon8595"
                 points="46.174,92.506 37.859,48.429 23.5,52.267 " /></g><g
               style="fill:#000000;fill-opacity:1"
               id="g8601"><polygon
                 style="fill:#000000;fill-opacity:1"
                 id="polygon8599"
                 points="50,5 42.956,42.779 57.044,42.779 " /></g><g
               style="fill:#000000;fill-opacity:1"
               id="g8605"><polygon
                 style="fill:#000000;fill-opacity:1"
                 id="polygon8603"
                 points="23.953,46.93 37.717,43.252 45.686,8.362 " /></g><g
               style="fill:#000000;fill-opacity:1"
               id="g8609"><polygon
                 style="fill:#000000;fill-opacity:1"
                 id="polygon8607"
                 points="50,95 57.165,47.82 42.835,47.82 " /></g><g
               style="fill:#000000;fill-opacity:1"
               id="g8613"><polygon
                 style="fill:#000000;fill-opacity:1"
                 id="polygon8611"
                 points="53.826,92.506 76.5,52.267 62.14,48.429 " /></g><g
               style="fill:#000000;fill-opacity:1"
               id="g8617"><polygon
                 style="fill:#000000;fill-opacity:1"
                 id="polygon8615"
                 points="54.314,8.362 62.283,43.252 76.047,46.93 " /></g></g></svg>      </g>
    </g>
  </g>
  <text
     xml:space="preserve"
     style="font-style:normal;font-weight:normal;font-size:40px;line-height:1.25;font-family:sans-serif;letter-spacing:0px;word-spacing:0px;fill:#000000;fill-opacity:1;stroke:none"
     x="-9.1684113"
     y="147.11288"
     id="text9373"><tspan
       sodipodi:role="line"
       id="tspan9371"
       x="-9.1684113"
       y="147.11288"
       style="font-style:normal;font-variant:normal;font-weight:normal;font-stretch:normal;font-family:Roboto;-inkscape-font-specification:Roboto">EthSites.io</tspan></text>
</svg>
